<svg width="20" height="20" viewBox="0 0 20 20" fill="none" xmlns="http://www.w3.org/2000/svg">
<path opacity="0.5" d="M1.66602 10.0003C1.66602 6.07195 1.66602 4.10777 2.8864 2.88738C4.10679 1.66699 6.07098 1.66699 9.99935 1.66699C13.9277 1.66699 15.8919 1.66699 17.1123 2.88738C18.3327 4.10777 18.3327 6.07195 18.3327 10.0003C18.3327 13.9287 18.3327 15.8929 17.1123 17.1133C15.8919 18.3337 13.9277 18.3337 9.99935 18.3337C6.07098 18.3337 4.10679 18.3337 2.8864 17.1133C1.66602 15.8929 1.66602 13.9287 1.66602 10.0003Z" fill="#6574D8"/>
<path d="M2.88644 17.1126C4.10686 18.333 6.07111 18.333 9.99959 18.333C13.9281 18.333 15.8923 18.333 17.1127 17.1126C18.2436 15.9818 18.3266 14.2122 18.3327 10.833H15.6995C14.9452 10.833 14.568 10.833 14.2365 10.9855C13.905 11.138 13.6595 11.4243 13.1686 11.997L12.6641 12.5856C12.1732 13.1584 11.9277 13.4447 11.5962 13.5972C11.2646 13.7497 10.8875 13.7497 10.1331 13.7497H9.86604C9.1117 13.7497 8.73454 13.7497 8.40301 13.5972C8.07148 13.4447 7.82602 13.1584 7.33511 12.5856L6.83057 11.997C6.33966 11.4243 6.0942 11.138 5.76267 10.9855C5.43114 10.833 5.05397 10.833 4.29964 10.833H1.66602C1.6721 14.2122 1.75555 15.9818 2.88644 17.1126Z" fill="#6574D8"/>
<path d="M10.4419 9.4421C10.3247 9.55931 10.1658 9.62516 10 9.62516C9.83424 9.62516 9.67527 9.55931 9.55806 9.4421L6.80806 6.6921C6.56398 6.44803 6.56398 6.0523 6.80806 5.80822C7.05214 5.56414 7.44786 5.56414 7.69194 5.80822L9.375 7.49128L9.375 1.66719C9.57758 1.66699 9.78579 1.66699 9.99984 1.66699C10.214 1.66699 10.4223 1.66699 10.625 1.66719V7.49128L12.3081 5.80822C12.5521 5.56414 12.9479 5.56414 13.1919 5.80822C13.436 6.0523 13.436 6.44803 13.1919 6.6921L10.4419 9.4421Z" fill="#6574D8"/>
</svg>
