<svg width="14" height="24" viewBox="0 0 14 24" fill="none" xmlns="http://www.w3.org/2000/svg">
<path d="M12.6767 4.74645C12.4646 3.4194 11.8291 2.28697 10.8112 1.44045C9.75757 0.564335 8.35371 0.0529041 6.857 0.000387839C6.84355 -0.00012928 6.83051 -0.00012928 6.81701 0.000387839C5.32029 0.0529041 3.91591 0.564335 2.86231 1.44045C1.84428 2.28697 1.21023 3.41923 0.998154 4.74645C0.442884 4.76592 0 5.22369 0 5.78356V7.31791C0 7.89013 0.460178 8.36272 1.0324 8.36272H1.49562C1.8129 8.36272 2.06853 8.09841 2.06853 7.78107V5.54126C2.18345 2.62793 4.5426 1.2378 6.83763 1.1496C9.13284 1.2378 11.4916 2.6277 11.6065 5.54137V7.2327L10.9284 7.26424C11.0041 6.81308 11.0334 6.33354 11.0146 5.83113C10.9182 3.25203 8.79223 2.00422 6.85791 1.93631C6.84458 1.93579 6.83085 1.93579 6.81752 1.93631C4.88327 2.00422 2.75745 3.25197 2.66081 5.83107C2.58105 7.96275 3.37552 9.68453 4.84058 10.5549C5.45646 10.9208 6.14693 11.1037 6.83746 11.1037C7.52799 11.1037 8.21845 10.9208 8.83434 10.5549C9.63714 10.0779 10.2386 9.3488 10.6052 8.43316L12.1926 8.36277H12.6424C13.2146 8.36277 13.675 7.89018 13.675 7.31796V5.78361C13.675 5.22369 13.232 4.76598 12.6767 4.74645ZM9.74597 7.31928L7.64842 7.41696C7.33137 7.43173 7.08642 7.70069 7.10119 8.01768C7.11596 8.33468 7.38279 8.57985 7.70191 8.56491L9.2986 8.49056C9.03309 8.9443 8.67961 9.31025 8.24736 9.56697C7.37773 10.0836 6.29718 10.0836 5.42756 9.56697C4.33547 8.91816 3.74561 7.57221 3.80915 5.87411C3.87833 4.02725 5.37654 3.14441 6.83757 3.08552C8.29867 3.14441 9.79682 4.02725 9.86577 5.87411C9.88513 6.39169 9.84376 6.87675 9.74597 7.31928ZM11.9257 16.0091C11.4505 13.4429 9.0278 12.2943 6.83757 12.2942C6.83746 12.2942 6.83769 12.2942 6.83757 12.2942C4.6474 12.2942 2.22447 13.443 1.74918 16.009L0.395136 23.3196C0.364052 23.4874 0.409214 23.6566 0.518383 23.7879C0.627553 23.9191 0.789468 23.9912 0.960117 23.9912H9.43736C9.75464 23.9912 10.0119 23.734 10.0119 23.4166C10.0119 23.0993 9.75464 22.842 9.43736 22.842H1.65093L2.8792 16.2145C3.05479 15.2664 3.60558 14.5882 4.32501 14.1338C4.57116 14.9859 5.55104 15.5449 6.83717 15.5449C6.837 15.5449 6.83734 15.5449 6.83717 15.5449C8.12336 15.5449 9.10376 14.9878 9.35008 14.1358C10.0695 14.5901 10.6202 15.2746 10.7958 16.2228L12.1499 23.5311C12.2012 23.8077 12.4427 24 12.7142 24C12.7489 24 12.7842 23.9963 12.8195 23.9897C13.1316 23.9319 13.3377 23.6319 13.2799 23.3198L11.9257 16.0091ZM8.24874 13.8072C8.16456 14.1323 7.54476 14.3958 6.83746 14.3958C6.13039 14.3958 5.51036 14.1322 5.4263 13.8072L5.38826 13.6557C5.85988 13.5156 6.35556 13.4456 6.83757 13.4456C7.31959 13.4456 7.81516 13.5167 8.28677 13.6569L8.24874 13.8072Z" fill="white"/>
</svg>
