<svg width="24" height="24" viewBox="0 0 24 24" fill="none" xmlns="http://www.w3.org/2000/svg">
<g clip-path="url(#clip0_1974_17150)">
<path d="M24 18V6.8C23.9987 5.696 23.104 4.8013 22 4.8H17.6V0H16.8V9.2C16.8 9.4209 16.9791 9.6 17.2 9.6H18.556L12 13.5336L5.444 9.6H6.8C7.0209 9.6 7.2 9.4209 7.2 9.2V0H6.4V4.8H2C0.896 4.8013 0.0013 5.696 0 6.8V18C0.0013 19.104 0.896 19.9987 2 20H8.5528L7.7528 21.6H0.4C0.1791 21.6 0 21.7791 0 22C0 24 2.1076 24 2.8 24H21.2C21.8924 24 24 24 24 22C24 21.7791 23.8209 21.6 23.6 21.6H16.2472L15.4472 20H22C23.104 19.9987 23.9987 19.104 24 18ZM6.4 8.8H4C3.7791 8.80005 3.60005 8.9792 3.60015 9.20015C3.6002 9.3405 3.67375 9.4705 3.79405 9.54285L11.7941 14.3428C11.9208 14.419 12.0793 14.419 12.206 14.3428L20.2061 9.54285C20.3953 9.429 20.4566 9.18325 20.3428 8.9939C20.2705 8.87365 20.1404 8.80005 20.0001 8.8H17.6V7.2H21.6V16.8H2.4V7.2H6.4V8.8ZM23.1516 22.4C23.012 22.8924 22.5292 23.2 21.2 23.2H2.8C1.4708 23.2 0.988 22.8924 0.8484 22.4H23.1516ZM8.6472 21.6L9.4472 20H14.5528L15.3528 21.6H8.6472ZM2 19.2C1.33725 19.2 0.8 18.6628 0.8 18V6.8C0.8 6.13725 1.33725 5.6 2 5.6H6.4V6.4H2C1.7791 6.4 1.6 6.5791 1.6 6.8V17.2C1.6 17.4209 1.7791 17.6 2 17.6H22C22.2209 17.6 22.4 17.4209 22.4 17.2V6.8C22.4 6.5791 22.2209 6.4 22 6.4H17.6V5.6H22C22.6628 5.6 23.2 6.13725 23.2 6.8V18C23.2 18.6628 22.6628 19.2 22 19.2H2Z" fill="#90A9CD"/>
<path d="M13.7456 6.01918C14.3696 5.52818 14.7536 4.79348 14.8004 4.00078C14.8004 1.35598 13.2776 0.800781 12.0004 0.800781C10.7232 0.800781 9.20039 1.35598 9.20039 4.00078C9.24684 4.79388 9.63084 5.52908 10.2552 6.02038C9.19489 6.15103 8.39884 7.05243 8.40039 8.12078V9.60078H9.20039V8.12078C9.20039 7.39178 9.79139 6.80078 10.5204 6.80078H13.4804C14.2094 6.80078 14.8004 7.39178 14.8004 8.12078V9.60078H15.6004V8.12078C15.6025 7.05198 14.8063 6.14988 13.7456 6.01918ZM10.0212 3.57718C10.1296 2.23678 10.7604 1.60078 12.0004 1.60078C13.1356 1.60078 13.7604 2.13758 13.9392 3.25758L12.6064 2.45758C12.4169 2.34393 12.1712 2.40538 12.0576 2.59483C12.0426 2.61983 12.0304 2.64633 12.0212 2.67398C11.8188 3.28118 10.726 3.51078 10.0212 3.57718ZM12.0004 6.00078C11.1082 5.84883 10.3661 5.23018 10.056 4.37998V4.37878C10.7408 4.32238 11.976 4.11518 12.552 3.35718L13.9816 4.21478C13.8212 5.19558 12.6144 6.00078 12.0004 6.00078Z" fill="#21529C"/>
<path d="M20.0004 14.3996V13.5996H19.2004V14.3996H18.4004V15.1996H19.2004V15.9996H20.0004V15.1996H20.8004V14.3996H20.0004Z" fill="#21529C"/>
</g>
<defs>
<clipPath id="clip0_1974_17150">
<rect width="24" height="24" fill="white"/>
</clipPath>
</defs>
</svg>
