<svg width="24" height="24" viewBox="0 0 24 24" fill="none" xmlns="http://www.w3.org/2000/svg">
<path d="M19.2656 0.351562H4.73438C4.21661 0.351562 3.79688 0.771296 3.79688 1.28906V22.7109C3.79688 23.2287 4.21661 23.6484 4.73438 23.6484H19.2656C19.7834 23.6484 20.2031 23.2287 20.2031 22.7109V1.28906C20.2031 0.771296 19.7834 0.351562 19.2656 0.351562Z" fill="#90A9CD"/>
<path d="M19.2656 24H4.73438C4.39265 23.9995 4.06506 23.8635 3.82342 23.6219C3.58178 23.3803 3.44581 23.0527 3.44531 22.7109V1.28906C3.44581 0.947334 3.58178 0.619744 3.82342 0.378105C4.06506 0.136467 4.39265 0.000495978 4.73438 0L19.2656 0C19.6074 0.000495978 19.9349 0.136467 20.1766 0.378105C20.4182 0.619744 20.5542 0.947334 20.5547 1.28906V22.7109C20.5542 23.0527 20.4182 23.3803 20.1766 23.6219C19.9349 23.8635 19.6074 23.9995 19.2656 24ZM4.73438 0.703125C4.57905 0.703373 4.43016 0.765185 4.32033 0.875016C4.2105 0.984847 4.14869 1.13374 4.14844 1.28906V22.7109C4.14869 22.8663 4.2105 23.0152 4.32033 23.125C4.43016 23.2348 4.57905 23.2966 4.73438 23.2969H19.2656C19.4209 23.2966 19.5698 23.2348 19.6797 23.125C19.7895 23.0152 19.8513 22.8663 19.8516 22.7109V1.28906C19.8513 1.13374 19.7895 0.984847 19.6797 0.875016C19.5698 0.765185 19.4209 0.703373 19.2656 0.703125H4.73438Z" fill="#21529C"/>
<path d="M17.625 2.22656H6.375C6.11612 2.22656 5.90625 2.43643 5.90625 2.69531V4.57031C5.90625 4.8292 6.11612 5.03906 6.375 5.03906H17.625C17.8839 5.03906 18.0938 4.8292 18.0938 4.57031V2.69531C18.0938 2.43643 17.8839 2.22656 17.625 2.22656Z" fill="white"/>
<path d="M17.625 5.39062H6.375C6.15752 5.39038 5.94901 5.30387 5.79523 5.15009C5.64144 4.9963 5.55494 4.7878 5.55469 4.57031V2.69531C5.55494 2.47783 5.64144 2.26932 5.79523 2.11554C5.94901 1.96175 6.15752 1.87525 6.375 1.875H17.625C17.8425 1.87525 18.051 1.96175 18.2048 2.11554C18.3586 2.26932 18.4451 2.47783 18.4453 2.69531V4.57031C18.4451 4.7878 18.3586 4.9963 18.2048 5.15009C18.051 5.30387 17.8425 5.39038 17.625 5.39062ZM6.375 2.57812C6.34392 2.57812 6.31411 2.59047 6.29214 2.61245C6.27016 2.63443 6.25781 2.66423 6.25781 2.69531V4.57031C6.25781 4.60139 6.27016 4.6312 6.29214 4.65318C6.31411 4.67515 6.34392 4.6875 6.375 4.6875H17.625C17.6561 4.6875 17.6859 4.67515 17.7079 4.65318C17.7298 4.6312 17.7422 4.60139 17.7422 4.57031V2.69531C17.7422 2.66423 17.7298 2.63443 17.7079 2.61245C17.6859 2.59047 17.6561 2.57812 17.625 2.57812H6.375Z" fill="#21529C"/>
<path d="M7.3125 7.92188H6.375C6.11612 7.92188 5.90625 8.13174 5.90625 8.39062V9.32812C5.90625 9.58701 6.11612 9.79688 6.375 9.79688H7.3125C7.57138 9.79688 7.78125 9.58701 7.78125 9.32812V8.39062C7.78125 8.13174 7.57138 7.92188 7.3125 7.92188Z" fill="white"/>
<path d="M7.3125 10.1484H6.375C6.15752 10.1482 5.94901 10.0617 5.79523 9.9079C5.64144 9.75411 5.55494 9.54561 5.55469 9.32812V8.39062C5.55494 8.17314 5.64144 7.96464 5.79523 7.81085C5.94901 7.65707 6.15752 7.57056 6.375 7.57031H7.3125C7.52998 7.57056 7.73849 7.65707 7.89227 7.81085C8.04606 7.96464 8.13256 8.17314 8.13281 8.39062V9.32812C8.13256 9.54561 8.04606 9.75411 7.89227 9.9079C7.73849 10.0617 7.52998 10.1482 7.3125 10.1484ZM6.375 8.27344C6.34392 8.27344 6.31411 8.28578 6.29214 8.30776C6.27016 8.32974 6.25781 8.35954 6.25781 8.39062V9.32812C6.25781 9.35921 6.27016 9.38901 6.29214 9.41099C6.31411 9.43297 6.34392 9.44531 6.375 9.44531H7.3125C7.34358 9.44531 7.37339 9.43297 7.39536 9.41099C7.41734 9.38901 7.42969 9.35921 7.42969 9.32812V8.39062C7.42969 8.35954 7.41734 8.32974 7.39536 8.30776C7.37339 8.28578 7.34358 8.27344 7.3125 8.27344H6.375Z" fill="#21529C"/>
<path d="M10.75 7.92188H9.8125C9.55362 7.92188 9.34375 8.13174 9.34375 8.39062V9.32812C9.34375 9.58701 9.55362 9.79688 9.8125 9.79688H10.75C11.0089 9.79688 11.2188 9.58701 11.2188 9.32812V8.39062C11.2188 8.13174 11.0089 7.92188 10.75 7.92188Z" fill="white"/>
<path d="M10.75 10.1484H9.8125C9.59502 10.1482 9.38651 10.0617 9.23273 9.9079C9.07894 9.75411 8.99244 9.54561 8.99219 9.32812V8.39062C8.99244 8.17314 9.07894 7.96464 9.23273 7.81085C9.38651 7.65707 9.59502 7.57056 9.8125 7.57031H10.75C10.9675 7.57056 11.176 7.65707 11.3298 7.81085C11.4836 7.96464 11.5701 8.17314 11.5703 8.39062V9.32812C11.5701 9.54561 11.4836 9.75411 11.3298 9.9079C11.176 10.0617 10.9675 10.1482 10.75 10.1484ZM9.8125 8.27344C9.78146 8.27356 9.75172 8.28595 9.72977 8.3079C9.70782 8.32985 9.69544 8.35958 9.69531 8.39062V9.32812C9.69544 9.35917 9.70782 9.3889 9.72977 9.41085C9.75172 9.4328 9.78146 9.44519 9.8125 9.44531H10.75C10.7811 9.44531 10.8109 9.43297 10.8329 9.41099C10.8548 9.38901 10.8672 9.35921 10.8672 9.32812V8.39062C10.8672 8.35954 10.8548 8.32974 10.8329 8.30776C10.8109 8.28578 10.7811 8.27344 10.75 8.27344H9.8125Z" fill="#21529C"/>
<path d="M14.1875 7.92188H13.25C12.9911 7.92188 12.7812 8.13174 12.7812 8.39062V9.32812C12.7812 9.58701 12.9911 9.79688 13.25 9.79688H14.1875C14.4464 9.79688 14.6562 9.58701 14.6562 9.32812V8.39062C14.6562 8.13174 14.4464 7.92188 14.1875 7.92188Z" fill="white"/>
<path d="M14.1875 10.1484H13.25C13.0325 10.1482 12.824 10.0617 12.6702 9.9079C12.5164 9.75411 12.4299 9.54561 12.4297 9.32812V8.39062C12.4299 8.17314 12.5164 7.96464 12.6702 7.81085C12.824 7.65707 13.0325 7.57056 13.25 7.57031H14.1875C14.405 7.57056 14.6135 7.65707 14.7673 7.81085C14.9211 7.96464 15.0076 8.17314 15.0078 8.39062V9.32812C15.0076 9.54561 14.9211 9.75411 14.7673 9.9079C14.6135 10.0617 14.405 10.1482 14.1875 10.1484ZM13.25 8.27344C13.2189 8.27344 13.1891 8.28578 13.1671 8.30776C13.1452 8.32974 13.1328 8.35954 13.1328 8.39062V9.32812C13.1328 9.35921 13.1452 9.38901 13.1671 9.41099C13.1891 9.43297 13.2189 9.44531 13.25 9.44531H14.1875C14.2185 9.44519 14.2483 9.4328 14.2702 9.41085C14.2922 9.3889 14.3046 9.35917 14.3047 9.32812V8.39062C14.3046 8.35958 14.2922 8.32985 14.2702 8.3079C14.2483 8.28595 14.2185 8.27356 14.1875 8.27344H13.25Z" fill="#21529C"/>
<path d="M17.625 7.92188H16.6875C16.4286 7.92188 16.2188 8.13174 16.2188 8.39062V9.32812C16.2188 9.58701 16.4286 9.79688 16.6875 9.79688H17.625C17.8839 9.79688 18.0938 9.58701 18.0938 9.32812V8.39062C18.0938 8.13174 17.8839 7.92188 17.625 7.92188Z" fill="white"/>
<path d="M17.625 10.1484H16.6875C16.47 10.1482 16.2615 10.0617 16.1077 9.9079C15.9539 9.75411 15.8674 9.54561 15.8672 9.32812V8.39062C15.8674 8.17314 15.9539 7.96464 16.1077 7.81085C16.2615 7.65707 16.47 7.57056 16.6875 7.57031H17.625C17.8425 7.57056 18.051 7.65707 18.2048 7.81085C18.3586 7.96464 18.4451 8.17314 18.4453 8.39062V9.32812C18.4451 9.54561 18.3586 9.75411 18.2048 9.9079C18.051 10.0617 17.8425 10.1482 17.625 10.1484ZM16.6875 8.27344C16.6564 8.27344 16.6266 8.28578 16.6046 8.30776C16.5827 8.32974 16.5703 8.35954 16.5703 8.39062V9.32812C16.5703 9.35921 16.5827 9.38901 16.6046 9.41099C16.6266 9.43297 16.6564 9.44531 16.6875 9.44531H17.625C17.6561 9.44531 17.6859 9.43297 17.7079 9.41099C17.7298 9.38901 17.7422 9.35921 17.7422 9.32812V8.39062C17.7422 8.35954 17.7298 8.32974 17.7079 8.30776C17.6859 8.28578 17.6561 8.27344 17.625 8.27344H16.6875Z" fill="#21529C"/>
<path d="M7.3125 11.9531H6.375C6.11612 11.9531 5.90625 12.163 5.90625 12.4219V13.3594C5.90625 13.6183 6.11612 13.8281 6.375 13.8281H7.3125C7.57138 13.8281 7.78125 13.6183 7.78125 13.3594V12.4219C7.78125 12.163 7.57138 11.9531 7.3125 11.9531Z" fill="white"/>
<path d="M7.3125 14.1797H6.375C6.15752 14.1794 5.94901 14.0929 5.79523 13.9391C5.64144 13.7854 5.55494 13.5769 5.55469 13.3594V12.4219C5.55494 12.2044 5.64144 11.9959 5.79523 11.8421C5.94901 11.6883 6.15752 11.6018 6.375 11.6016H7.3125C7.52998 11.6018 7.73849 11.6883 7.89227 11.8421C8.04606 11.9959 8.13256 12.2044 8.13281 12.4219V13.3594C8.13256 13.5769 8.04606 13.7854 7.89227 13.9391C7.73849 14.0929 7.52998 14.1794 7.3125 14.1797ZM6.375 12.3047C6.34392 12.3047 6.31411 12.317 6.29214 12.339C6.27016 12.361 6.25781 12.3908 6.25781 12.4219V13.3594C6.25781 13.3905 6.27016 13.4203 6.29214 13.4422C6.31411 13.4642 6.34392 13.4766 6.375 13.4766H7.3125C7.34358 13.4766 7.37339 13.4642 7.39536 13.4422C7.41734 13.4203 7.42969 13.3905 7.42969 13.3594V12.4219C7.42969 12.3908 7.41734 12.361 7.39536 12.339C7.37339 12.317 7.34358 12.3047 7.3125 12.3047H6.375Z" fill="#21529C"/>
<path d="M10.75 11.9531H9.8125C9.55362 11.9531 9.34375 12.163 9.34375 12.4219V13.3594C9.34375 13.6183 9.55362 13.8281 9.8125 13.8281H10.75C11.0089 13.8281 11.2188 13.6183 11.2188 13.3594V12.4219C11.2188 12.163 11.0089 11.9531 10.75 11.9531Z" fill="white"/>
<path d="M10.75 14.1797H9.8125C9.59502 14.1794 9.38651 14.0929 9.23273 13.9391C9.07894 13.7854 8.99244 13.5769 8.99219 13.3594V12.4219C8.99244 12.2044 9.07894 11.9959 9.23273 11.8421C9.38651 11.6883 9.59502 11.6018 9.8125 11.6016H10.75C10.9675 11.6018 11.176 11.6883 11.3298 11.8421C11.4836 11.9959 11.5701 12.2044 11.5703 12.4219V13.3594C11.5701 13.5769 11.4836 13.7854 11.3298 13.9391C11.176 14.0929 10.9675 14.1794 10.75 14.1797ZM9.8125 12.3047C9.78146 12.3048 9.75172 12.3172 9.72977 12.3391C9.70782 12.3611 9.69544 12.3908 9.69531 12.4219V13.3594C9.69544 13.3904 9.70782 13.4202 9.72977 13.4421C9.75172 13.4641 9.78146 13.4764 9.8125 13.4766H10.75C10.7811 13.4766 10.8109 13.4642 10.8329 13.4422C10.8548 13.4203 10.8672 13.3905 10.8672 13.3594V12.4219C10.8672 12.3908 10.8548 12.361 10.8329 12.339C10.8109 12.317 10.7811 12.3047 10.75 12.3047H9.8125Z" fill="#21529C"/>
<path d="M14.1875 11.9531H13.25C12.9911 11.9531 12.7812 12.163 12.7812 12.4219V13.3594C12.7812 13.6183 12.9911 13.8281 13.25 13.8281H14.1875C14.4464 13.8281 14.6562 13.6183 14.6562 13.3594V12.4219C14.6562 12.163 14.4464 11.9531 14.1875 11.9531Z" fill="white"/>
<path d="M14.1875 14.1797H13.25C13.0325 14.1794 12.824 14.0929 12.6702 13.9391C12.5164 13.7854 12.4299 13.5769 12.4297 13.3594V12.4219C12.4299 12.2044 12.5164 11.9959 12.6702 11.8421C12.824 11.6883 13.0325 11.6018 13.25 11.6016H14.1875C14.405 11.6018 14.6135 11.6883 14.7673 11.8421C14.9211 11.9959 15.0076 12.2044 15.0078 12.4219V13.3594C15.0076 13.5769 14.9211 13.7854 14.7673 13.9391C14.6135 14.0929 14.405 14.1794 14.1875 14.1797ZM13.25 12.3047C13.2189 12.3047 13.1891 12.317 13.1671 12.339C13.1452 12.361 13.1328 12.3908 13.1328 12.4219V13.3594C13.1328 13.3905 13.1452 13.4203 13.1671 13.4422C13.1891 13.4642 13.2189 13.4766 13.25 13.4766H14.1875C14.2185 13.4764 14.2483 13.4641 14.2702 13.4421C14.2922 13.4202 14.3046 13.3904 14.3047 13.3594V12.4219C14.3046 12.3908 14.2922 12.3611 14.2702 12.3391C14.2483 12.3172 14.2185 12.3048 14.1875 12.3047H13.25Z" fill="#21529C"/>
<path d="M17.625 11.9531H16.6875C16.4286 11.9531 16.2188 12.163 16.2188 12.4219V13.3594C16.2188 13.6183 16.4286 13.8281 16.6875 13.8281H17.625C17.8839 13.8281 18.0938 13.6183 18.0938 13.3594V12.4219C18.0938 12.163 17.8839 11.9531 17.625 11.9531Z" fill="white"/>
<path d="M17.625 14.1797H16.6875C16.47 14.1794 16.2615 14.0929 16.1077 13.9391C15.9539 13.7854 15.8674 13.5769 15.8672 13.3594V12.4219C15.8674 12.2044 15.9539 11.9959 16.1077 11.8421C16.2615 11.6883 16.47 11.6018 16.6875 11.6016H17.625C17.8425 11.6018 18.051 11.6883 18.2048 11.8421C18.3586 11.9959 18.4451 12.2044 18.4453 12.4219V13.3594C18.4451 13.5769 18.3586 13.7854 18.2048 13.9391C18.051 14.0929 17.8425 14.1794 17.625 14.1797ZM16.6875 12.3047C16.6564 12.3047 16.6266 12.317 16.6046 12.339C16.5827 12.361 16.5703 12.3908 16.5703 12.4219V13.3594C16.5703 13.3905 16.5827 13.4203 16.6046 13.4422C16.6266 13.4642 16.6564 13.4766 16.6875 13.4766H17.625C17.6561 13.4766 17.6859 13.4642 17.7079 13.4422C17.7298 13.4203 17.7422 13.3905 17.7422 13.3594V12.4219C17.7422 12.3908 17.7298 12.361 17.7079 12.339C17.6859 12.317 17.6561 12.3047 17.625 12.3047H16.6875Z" fill="#21529C"/>
<path d="M7.3125 15.9844H6.375C6.11612 15.9844 5.90625 16.1942 5.90625 16.4531V17.3906C5.90625 17.6495 6.11612 17.8594 6.375 17.8594H7.3125C7.57138 17.8594 7.78125 17.6495 7.78125 17.3906V16.4531C7.78125 16.1942 7.57138 15.9844 7.3125 15.9844Z" fill="white"/>
<path d="M7.3125 18.2109H6.375C6.15752 18.2107 5.94901 18.1242 5.79523 17.9704C5.64144 17.8166 5.55494 17.6081 5.55469 17.3906V16.4531C5.55494 16.2356 5.64144 16.0271 5.79523 15.8734C5.94901 15.7196 6.15752 15.6331 6.375 15.6328H7.3125C7.52998 15.6331 7.73849 15.7196 7.89227 15.8734C8.04606 16.0271 8.13256 16.2356 8.13281 16.4531V17.3906C8.13256 17.6081 8.04606 17.8166 7.89227 17.9704C7.73849 18.1242 7.52998 18.2107 7.3125 18.2109ZM6.375 16.3359C6.34392 16.3359 6.31411 16.3483 6.29214 16.3703C6.27016 16.3922 6.25781 16.422 6.25781 16.4531V17.3906C6.25781 17.4217 6.27016 17.4515 6.29214 17.4735C6.31411 17.4955 6.34392 17.5078 6.375 17.5078H7.3125C7.34358 17.5078 7.37339 17.4955 7.39536 17.4735C7.41734 17.4515 7.42969 17.4217 7.42969 17.3906V16.4531C7.42969 16.422 7.41734 16.3922 7.39536 16.3703C7.37339 16.3483 7.34358 16.3359 7.3125 16.3359H6.375Z" fill="#21529C"/>
<path d="M10.75 15.9844H9.8125C9.55362 15.9844 9.34375 16.1942 9.34375 16.4531V17.3906C9.34375 17.6495 9.55362 17.8594 9.8125 17.8594H10.75C11.0089 17.8594 11.2188 17.6495 11.2188 17.3906V16.4531C11.2188 16.1942 11.0089 15.9844 10.75 15.9844Z" fill="white"/>
<path d="M10.75 18.2109H9.8125C9.59502 18.2107 9.38651 18.1242 9.23273 17.9704C9.07894 17.8166 8.99244 17.6081 8.99219 17.3906V16.4531C8.99244 16.2356 9.07894 16.0271 9.23273 15.8734C9.38651 15.7196 9.59502 15.6331 9.8125 15.6328H10.75C10.9675 15.6331 11.176 15.7196 11.3298 15.8734C11.4836 16.0271 11.5701 16.2356 11.5703 16.4531V17.3906C11.5701 17.6081 11.4836 17.8166 11.3298 17.9704C11.176 18.1242 10.9675 18.2107 10.75 18.2109ZM9.8125 16.3359C9.78146 16.3361 9.75172 16.3484 9.72977 16.3704C9.70782 16.3923 9.69544 16.4221 9.69531 16.4531V17.3906C9.69544 17.4217 9.70782 17.4514 9.72977 17.4734C9.75172 17.4953 9.78146 17.5077 9.8125 17.5078H10.75C10.7811 17.5078 10.8109 17.4955 10.8329 17.4735C10.8548 17.4515 10.8672 17.4217 10.8672 17.3906V16.4531C10.8672 16.422 10.8548 16.3922 10.8329 16.3703C10.8109 16.3483 10.7811 16.3359 10.75 16.3359H9.8125Z" fill="#21529C"/>
<path d="M14.1875 15.9844H13.25C12.9911 15.9844 12.7812 16.1942 12.7812 16.4531V17.3906C12.7812 17.6495 12.9911 17.8594 13.25 17.8594H14.1875C14.4464 17.8594 14.6562 17.6495 14.6562 17.3906V16.4531C14.6562 16.1942 14.4464 15.9844 14.1875 15.9844Z" fill="white"/>
<path d="M14.1875 18.2109H13.25C13.0325 18.2107 12.824 18.1242 12.6702 17.9704C12.5164 17.8166 12.4299 17.6081 12.4297 17.3906V16.4531C12.4299 16.2356 12.5164 16.0271 12.6702 15.8734C12.824 15.7196 13.0325 15.6331 13.25 15.6328H14.1875C14.405 15.6331 14.6135 15.7196 14.7673 15.8734C14.9211 16.0271 15.0076 16.2356 15.0078 16.4531V17.3906C15.0076 17.6081 14.9211 17.8166 14.7673 17.9704C14.6135 18.1242 14.405 18.2107 14.1875 18.2109ZM13.25 16.3359C13.2189 16.3359 13.1891 16.3483 13.1671 16.3703C13.1452 16.3922 13.1328 16.422 13.1328 16.4531V17.3906C13.1328 17.4217 13.1452 17.4515 13.1671 17.4735C13.1891 17.4955 13.2189 17.5078 13.25 17.5078H14.1875C14.2185 17.5077 14.2483 17.4953 14.2702 17.4734C14.2922 17.4514 14.3046 17.4217 14.3047 17.3906V16.4531C14.3046 16.4221 14.2922 16.3923 14.2702 16.3704C14.2483 16.3484 14.2185 16.3361 14.1875 16.3359H13.25Z" fill="#21529C"/>
<path d="M7.3125 20.0156H6.375C6.11612 20.0156 5.90625 20.2255 5.90625 20.4844V21.4219C5.90625 21.6808 6.11612 21.8906 6.375 21.8906H7.3125C7.57138 21.8906 7.78125 21.6808 7.78125 21.4219V20.4844C7.78125 20.2255 7.57138 20.0156 7.3125 20.0156Z" fill="white"/>
<path d="M7.3125 22.2422H6.375C6.15752 22.2419 5.94901 22.1554 5.79523 22.0016C5.64144 21.8479 5.55494 21.6394 5.55469 21.4219V20.4844C5.55494 20.2669 5.64144 20.0584 5.79523 19.9046C5.94901 19.7508 6.15752 19.6643 6.375 19.6641H7.3125C7.52998 19.6643 7.73849 19.7508 7.89227 19.9046C8.04606 20.0584 8.13256 20.2669 8.13281 20.4844V21.4219C8.13256 21.6394 8.04606 21.8479 7.89227 22.0016C7.73849 22.1554 7.52998 22.2419 7.3125 22.2422ZM6.375 20.3672C6.34392 20.3672 6.31411 20.3795 6.29214 20.4015C6.27016 20.4235 6.25781 20.4533 6.25781 20.4844V21.4219C6.25781 21.453 6.27016 21.4828 6.29214 21.5047C6.31411 21.5267 6.34392 21.5391 6.375 21.5391H7.3125C7.34358 21.5391 7.37339 21.5267 7.39536 21.5047C7.41734 21.4828 7.42969 21.453 7.42969 21.4219V20.4844C7.42969 20.4533 7.41734 20.4235 7.39536 20.4015C7.37339 20.3795 7.34358 20.3672 7.3125 20.3672H6.375Z" fill="#21529C"/>
<path d="M10.75 20.0156H9.8125C9.55362 20.0156 9.34375 20.2255 9.34375 20.4844V21.4219C9.34375 21.6808 9.55362 21.8906 9.8125 21.8906H10.75C11.0089 21.8906 11.2188 21.6808 11.2188 21.4219V20.4844C11.2188 20.2255 11.0089 20.0156 10.75 20.0156Z" fill="white"/>
<path d="M10.75 22.2422H9.8125C9.59502 22.2419 9.38651 22.1554 9.23273 22.0016C9.07894 21.8479 8.99244 21.6394 8.99219 21.4219V20.4844C8.99244 20.2669 9.07894 20.0584 9.23273 19.9046C9.38651 19.7508 9.59502 19.6643 9.8125 19.6641H10.75C10.9675 19.6643 11.176 19.7508 11.3298 19.9046C11.4836 20.0584 11.5701 20.2669 11.5703 20.4844V21.4219C11.5701 21.6394 11.4836 21.8479 11.3298 22.0016C11.176 22.1554 10.9675 22.2419 10.75 22.2422ZM9.8125 20.3672C9.78146 20.3673 9.75172 20.3797 9.72977 20.4016C9.70782 20.4236 9.69544 20.4533 9.69531 20.4844V21.4219C9.69544 21.4529 9.70782 21.4827 9.72977 21.5046C9.75172 21.5266 9.78146 21.5389 9.8125 21.5391H10.75C10.7811 21.5391 10.8109 21.5267 10.8329 21.5047C10.8548 21.4828 10.8672 21.453 10.8672 21.4219V20.4844C10.8672 20.4533 10.8548 20.4235 10.8329 20.4015C10.8109 20.3795 10.7811 20.3672 10.75 20.3672H9.8125Z" fill="#21529C"/>
<path d="M14.1875 20.0156H13.25C12.9911 20.0156 12.7812 20.2255 12.7812 20.4844V21.4219C12.7812 21.6808 12.9911 21.8906 13.25 21.8906H14.1875C14.4464 21.8906 14.6562 21.6808 14.6562 21.4219V20.4844C14.6562 20.2255 14.4464 20.0156 14.1875 20.0156Z" fill="white"/>
<path d="M14.1875 22.2422H13.25C13.0325 22.2419 12.824 22.1554 12.6702 22.0016C12.5164 21.8479 12.4299 21.6394 12.4297 21.4219V20.4844C12.4299 20.2669 12.5164 20.0584 12.6702 19.9046C12.824 19.7508 13.0325 19.6643 13.25 19.6641H14.1875C14.405 19.6643 14.6135 19.7508 14.7673 19.9046C14.9211 20.0584 15.0076 20.2669 15.0078 20.4844V21.4219C15.0076 21.6394 14.9211 21.8479 14.7673 22.0016C14.6135 22.1554 14.405 22.2419 14.1875 22.2422ZM13.25 20.3672C13.2189 20.3672 13.1891 20.3795 13.1671 20.4015C13.1452 20.4235 13.1328 20.4533 13.1328 20.4844V21.4219C13.1328 21.453 13.1452 21.4828 13.1671 21.5047C13.1891 21.5267 13.2189 21.5391 13.25 21.5391H14.1875C14.2185 21.5389 14.2483 21.5266 14.2702 21.5046C14.2922 21.4827 14.3046 21.4529 14.3047 21.4219V20.4844C14.3046 20.4533 14.2922 20.4236 14.2702 20.4016C14.2483 20.3797 14.2185 20.3673 14.1875 20.3672H13.25Z" fill="#21529C"/>
<path d="M17.625 15.9844H16.6875C16.4286 15.9844 16.2188 16.1942 16.2188 16.4531V21.4219C16.2188 21.6808 16.4286 21.8906 16.6875 21.8906H17.625C17.8839 21.8906 18.0938 21.6808 18.0938 21.4219V16.4531C18.0938 16.1942 17.8839 15.9844 17.625 15.9844Z" fill="white"/>
<path d="M17.625 22.2422H16.6875C16.47 22.2419 16.2615 22.1554 16.1077 22.0016C15.9539 21.8479 15.8674 21.6394 15.8672 21.4219V16.4531C15.8674 16.2356 15.9539 16.0271 16.1077 15.8734C16.2615 15.7196 16.47 15.6331 16.6875 15.6328H17.625C17.8425 15.6331 18.051 15.7196 18.2048 15.8734C18.3586 16.0271 18.4451 16.2356 18.4453 16.4531V21.4219C18.4451 21.6394 18.3586 21.8479 18.2048 22.0016C18.051 22.1554 17.8425 22.2419 17.625 22.2422ZM16.6875 16.3359C16.6564 16.3359 16.6266 16.3483 16.6046 16.3703C16.5827 16.3922 16.5703 16.422 16.5703 16.4531V21.4219C16.5703 21.453 16.5827 21.4828 16.6046 21.5047C16.6266 21.5267 16.6564 21.5391 16.6875 21.5391H17.625C17.6561 21.5391 17.6859 21.5267 17.7079 21.5047C17.7298 21.4828 17.7422 21.453 17.7422 21.4219V16.4531C17.7422 16.422 17.7298 16.3922 17.7079 16.3703C17.6859 16.3483 17.6561 16.3359 17.625 16.3359H16.6875Z" fill="#21529C"/>
</svg>
