<svg width="25" height="24" viewBox="0 0 25 24" fill="none" xmlns="http://www.w3.org/2000/svg">
<path opacity="0.6" d="M15.5 2H14.5C11.6716 2 10.2574 2 9.37868 2.87868C8.5 3.75736 8.5 5.17157 8.5 8V16C8.5 18.8284 8.5 20.2426 9.37868 21.1213C10.2574 22 11.6716 22 14.5 22H15.5C18.3284 22 19.7426 22 20.6213 21.1213C21.5 20.2426 21.5 18.8284 21.5 16V8C21.5 5.17157 21.5 3.75736 20.6213 2.87868C19.7426 2 18.3284 2 15.5 2Z" fill="#FF2D55"/>
<path opacity="0.4" d="M8.5 8C8.5 6.46249 8.5 5.34287 8.64114 4.5H8.5C6.14298 4.5 4.96447 4.5 4.23223 5.23223C3.5 5.96447 3.5 7.14298 3.5 9.5V14.5C3.5 16.857 3.5 18.0355 4.23223 18.7678C4.96447 19.5 6.14298 19.5 8.5 19.5H8.64114C8.5 18.6571 8.5 17.5375 8.5 16V12.75V11.25V8Z" fill="#FF2D55"/>
<path fill-rule="evenodd" clip-rule="evenodd" d="M4.96967 11.4697C4.67678 11.7626 4.67678 12.2374 4.96967 12.5303L6.96967 14.5303C7.26256 14.8232 7.73744 14.8232 8.03033 14.5303C8.32322 14.2374 8.32322 13.7626 8.03033 13.4697L7.31066 12.75L14.5 12.75C14.9142 12.75 15.25 12.4142 15.25 12C15.25 11.5858 14.9142 11.25 14.5 11.25L7.31066 11.25L8.03033 10.5303C8.32322 10.2374 8.32322 9.76256 8.03033 9.46967C7.73744 9.17678 7.26256 9.17678 6.96967 9.46967L4.96967 11.4697Z" fill="#FF2D55"/>
</svg>
