<svg width="13" height="13" viewBox="0 0 13 13" fill="none" xmlns="http://www.w3.org/2000/svg">
<g clip-path="url(#clip0_1435_6403)">
<path d="M6.49924 0C4.20516 0 2.3457 1.85945 2.3457 4.15354C2.3457 5.1428 2.69356 6.04986 3.27155 6.7629C3.45787 6.99237 3.76955 7.3537 3.93202 7.60077C4.86754 9.02201 6.06771 11.0861 6.41747 12.78C6.47748 13.0692 6.54981 13.0743 6.62767 12.7894C6.87714 11.876 7.52414 9.88036 8.86029 7.79218C9.01961 7.54316 9.34264 7.19464 9.54318 6.97766C9.83364 6.66309 10.0754 6.30296 10.2591 5.9103C10.5095 5.37468 10.6527 4.7817 10.6527 4.15402C10.6527 1.85968 8.79328 0 6.49924 0ZM6.49924 6.39767C5.2188 6.39767 4.18083 5.3597 4.18083 4.07926C4.18083 2.79904 5.2188 1.76111 6.49924 1.76111C7.77968 1.76111 8.81765 2.79909 8.81765 4.07926C8.81765 5.35974 7.77968 6.39767 6.49924 6.39767Z" fill="#010002"/>
<path d="M6.49934 4.96157C7.03184 4.96157 7.46352 4.52989 7.46352 3.99739C7.46352 3.46488 7.03184 3.0332 6.49934 3.0332C5.96684 3.0332 5.53516 3.46488 5.53516 3.99739C5.53516 4.52989 5.96684 4.96157 6.49934 4.96157Z" fill="#010002"/>
</g>
<defs>
<clipPath id="clip0_1435_6403">
<rect width="13" height="13" fill="white"/>
</clipPath>
</defs>
</svg>
