<svg width="14" height="13" viewBox="0 0 14 13" fill="none" xmlns="http://www.w3.org/2000/svg">
<path d="M6.49833 1.73453C6.65202 1.30958 6.72883 1.09711 6.84249 1.03823C6.94081 0.987258 7.05918 0.987258 7.15757 1.03823C7.27116 1.09711 7.34797 1.30958 7.50166 1.73453L8.51759 4.54388C8.56134 4.66483 8.58318 4.7253 8.62262 4.77033C8.65741 4.81011 8.70182 4.84112 8.75194 4.86065C8.80864 4.88276 8.87523 4.88406 9.0084 4.88667L12.102 4.94727C12.5699 4.95643 12.8039 4.96102 12.8973 5.04669C12.9781 5.12083 13.0147 5.22908 12.9946 5.33473C12.9715 5.45681 12.785 5.59267 12.4121 5.86452L9.94633 7.66133C9.84018 7.73874 9.78713 7.77741 9.75473 7.82731C9.72612 7.87147 9.70919 7.92163 9.70534 7.97345C9.70103 8.03215 9.72028 8.09342 9.75885 8.216L10.6549 11.0628C10.7904 11.4934 10.8582 11.7087 10.8023 11.8205C10.7539 11.9173 10.6581 11.9842 10.5473 11.9986C10.4194 12.0151 10.2274 11.8867 9.84316 11.6297L7.30335 9.93088C7.19401 9.85775 7.13938 9.82118 7.07996 9.80695C7.02745 9.79444 6.97254 9.79444 6.9201 9.80695C6.86068 9.82118 6.80598 9.85775 6.69663 9.93088L4.15686 11.6297C3.77268 11.8867 3.5806 12.0151 3.45267 11.9986C3.34195 11.9842 3.24615 11.9173 3.19776 11.8205C3.14185 11.7087 3.20962 11.4934 3.34515 11.0628L4.24116 8.216C4.27973 8.09342 4.29902 8.03215 4.29467 7.97345C4.29084 7.92163 4.27388 7.87147 4.24527 7.82731C4.2129 7.77741 4.15982 7.73874 4.05367 7.66133L1.58799 5.86452C1.21502 5.59267 1.02854 5.45681 1.00539 5.33473C0.985348 5.22908 1.02194 5.12083 1.10276 5.04669C1.19612 4.96102 1.43009 4.95644 1.89803 4.94727L4.99159 4.88667C5.12476 4.88406 5.19136 4.88276 5.24809 4.86065C5.29821 4.84112 5.34261 4.81011 5.37742 4.77033C5.41683 4.7253 5.43869 4.66483 5.48243 4.54388L6.49833 1.73453Z" stroke="#FFE602" stroke-linecap="round" stroke-linejoin="round"/>
</svg>
