<svg width="388" height="253" viewBox="0 0 388 253" fill="none" xmlns="http://www.w3.org/2000/svg">
<g clip-path="url(#clip0_1804_11796)">
<path fill-rule="evenodd" clip-rule="evenodd" d="M0 18.7136V132.719L23.6687 134.994C24.9594 131.202 25.0923 132.928 26.1931 131.07C25.7945 130.861 24.1053 130.766 23.5359 129.174C22.9664 127.581 23.7067 126.386 23.0613 124.301C22.5489 122.67 21.8656 122.405 21.8656 120.509C21.8656 119.22 22.3021 117.02 22.454 115.617C23.7636 114.878 26.0982 114.404 26.8954 112.697C28.262 109.74 26.8954 110.062 29.8184 108.204C31.5963 107.139 33.6982 106.749 35.7403 107.104C37.736 107.629 39.8482 107.489 41.7572 106.706C43.0099 103.976 44.2816 104.393 44.1108 101.208C44.1108 99.4445 43.6742 100.393 42.9719 98.6482C44.87 97.6623 42.9719 99.1791 45.3065 97.3779C46.0847 96.7712 45.781 95.918 47.9448 98.4776C54.4552 97.3969 52.5191 98.4776 54.5501 103.009H57.3971C56.2393 100.127 56.3532 103.786 53.3733 97.8709C52.5571 96.2593 52.8418 96.1076 51.4752 95.1786C49.8049 94.0031 49.9568 94.8183 48.9318 92.9603C51.5891 88.9977 54.7588 92.145 58.2323 91.8606L59.3711 88.6374C59.3711 88.3341 59.0105 88.827 59.485 87.7463C61.7437 88.5805 64.5528 95.0458 68.254 96.2024C70.9113 97.0366 72.8473 95.0269 73.9482 98.4017C75.3717 103.274 75.3148 99.1601 78.1429 103.199C81.2851 103.687 84.4817 103.719 87.6331 103.293C87.9178 103.293 88.2025 103.426 88.696 103.843C89.1895 104.26 90.4233 105.55 90.9927 106.156C90.5751 107.427 90.4043 106.611 89.8349 107.806L91.7329 109.171V111.939C90.4422 112.489 91.0117 111.939 89.9677 112.754C91.0117 113.987 91.695 114.082 92.6819 115.219C94.9406 114.347 96.6109 111.977 99.477 111.655C103.273 111.2 103.52 114.309 104.507 117.096C105.494 119.883 105.494 118.234 107.468 119.485C110.125 121.172 105.873 120.566 112.308 125.401C113.279 126.365 114.552 126.967 115.914 127.107C116.256 129.913 116.066 129.306 118.723 130.899C122.918 133.439 117.926 132.302 122.083 136.208C123.146 134.88 122.216 134.615 121.722 132.416C123.772 131.316 124.569 130.292 127.549 130.842C134.211 132.093 131.345 130.425 137.039 137.838C138.361 139.343 139.809 140.732 141.367 141.99L145.163 140.094L130.453 114.499C132.161 112.603 135.274 111.313 137.077 109.531C135.426 104.393 135.179 106.592 135.844 100.051C136.299 95.1786 135.996 94.2685 137.951 90.1732C140.475 84.8265 143.398 79.3471 145.543 74.1331C143.645 73.4127 141.481 73.2989 139.659 72.6353C138.216 72.1044 138.577 72.294 137.932 70.7393C137.571 69.8103 137.248 69.033 136.869 68.1229C135.818 65.6368 134.253 63.401 132.275 61.5628C131.592 60.7854 131.326 60.2356 130.624 59.4772L116.901 43.6078C115.762 40.9345 117.072 40.4605 114.434 38.6783L102.21 28.44C100.844 27.2076 99.5909 26.1458 98.1863 25.0272C90.4802 18.96 94.599 20.4768 84.4254 16.1729C74.9351 12.1724 69.241 7.86854 61.6488 1.74451C59.7887 0.170843 59.7317 -0.54963 56.9416 0.49316C47.9069 3.79217 32.0202 8.57005 22.7766 11.3761C15.1844 13.8219 7.59221 16.5901 0 18.7136Z" fill="#21529C"/>
<path fill-rule="evenodd" clip-rule="evenodd" d="M139.412 71.6297L147.004 73.374C146.264 76.4644 140.817 86.4942 139.109 90.0397C137.059 94.3625 137.211 94.8555 136.85 100.126C136.167 107.71 136.85 104.468 138.292 109.948C136.257 111.622 134.064 113.095 131.744 114.346C134.135 119.32 136.835 124.139 139.83 128.775L149.149 128.092C150.293 130.512 151.998 132.624 154.122 134.254C159.228 137.363 156.343 135.922 158.507 140.511L161.259 141.136C162.018 141.383 162.948 141.8 163.65 142.065C169.838 144.53 168.87 143.582 172.173 146.711C176.329 150.635 173.938 150.142 177.62 150.085L177.981 149.517L178.284 148.948C179.594 145.933 178.398 144.966 181.758 143.45C183.656 145.459 182.593 145.156 183.049 147.715L190.527 148.891L191.552 146.711L195.348 146.237C196.392 145.952 195.822 146.123 196.392 145.82L196.999 143.393C200.302 142.957 198.707 143.544 200.795 150.256C209.849 151.413 204.743 151.735 212.753 150.256L212.582 156.134C210.21 157.006 210.305 155.47 209.223 158.03C208.674 159.333 208.205 160.669 207.818 162.03C204.022 161.708 204.022 160.722 200.871 162.03C202.257 165.064 202.276 162.94 201.82 167.566L199.239 168.249C198.878 170.828 200.055 170.733 194.968 172.894C194.968 175.738 195.879 175.416 197.341 177.293C198.802 179.17 198.613 178.81 201.479 179.397C204.345 179.985 205.502 184.82 205.901 187.379L208.52 186.261C207.495 182.279 207.628 185.275 208.084 181.199C208.539 177.122 206.433 179.416 206.053 176.345C207.23 174.449 210.627 173.804 213.228 173.823L213.949 167.187C223.876 166.656 217.574 174.563 229.589 168.458C228.754 166.675 228.184 168.571 229.266 165.253C232.056 156.683 228.583 160.646 229.968 156.892C230.386 155.792 231.202 154.712 231.658 153.688C235.15 153.46 233.252 154.389 235.454 154.56C236.631 154.56 237.485 153.915 238.737 153.555L240.768 155.641L245.077 149.137C243.672 144.928 243.52 146.464 240.597 144.606L240.104 138.918L242.818 138.008C242.268 134.538 240.92 130.974 240.199 127.428C239.497 123.636 239.212 119.617 238.624 115.692L226.609 113.986V101.7H226.875L228.127 101.359L228.526 83.4227L223.363 85.4893C220.687 81.6974 218.2 72.881 214.784 70.6059C212.886 69.3166 208.957 67.3827 207.894 65.9607C202.333 58.6043 207.192 56.2533 196.733 61.8085C193.051 63.7045 193.791 63.5528 188.857 63.4201C182.745 63.2305 177.108 62.5858 171.072 61.9412C163.574 61.1259 161.392 62.1308 154.369 63.6097C148.661 64.801 142.865 65.5302 137.04 65.7901L139.412 71.6297Z" fill="#21529C"/>
<path fill-rule="evenodd" clip-rule="evenodd" d="M149.509 130.576C149.509 130.444 149.016 129.875 148.94 129.799C148.734 129.486 148.499 129.194 148.237 128.927L140.266 129.666L146.15 140.511L141.879 142.938C143.001 144.586 144.456 145.981 146.15 147.033C145.618 152.968 143.91 153.537 140.892 156.513C141.936 157.784 142.6 157.859 143.454 158.807C143.571 159.811 143.826 160.794 144.214 161.727C144.65 162.52 144.842 163.424 144.764 164.325C145.068 170.278 144.574 172.041 148.181 174.279C156.275 179.382 164.046 184.979 171.451 191.039C172.4 191.854 172.552 191.854 173.349 192.48C175.247 194.111 172.684 193.314 182.08 200.235C182.721 200.898 183.501 201.411 184.364 201.739C185.227 202.067 186.151 202.2 187.072 202.131C192.766 201.998 188.78 198.339 200.984 196.689L199.808 194.073C201.436 191.924 203.212 189.89 205.122 187.987C202.237 176.175 201.326 183.285 196.79 178.165C196.201 177.521 195.309 176.573 194.645 175.758C194.167 175.31 193.881 174.695 193.845 174.042C193.81 173.388 194.028 172.747 194.455 172.25C195.233 171.359 196.524 171.416 197.397 170.619C198.574 169.558 197.815 169.444 198.365 167.548L200.87 166.695L201.041 163.927L199.143 162.031C204.363 159.528 201.155 160.76 207.02 161.064L209.051 155.907L211.708 155.376V151.735C209.051 151.849 209.165 152.532 206.014 152.058C203.945 151.754 201.971 151.546 199.94 151.148C199.561 149.877 199.295 148.816 199.01 147.564C198.137 143.64 198.327 144.815 197.568 144.265L196.923 147.128L192.026 147.716L191.171 150.105C177.885 148.436 182.991 148.835 181.529 144.815C179.062 145.536 180.068 148.19 178.341 151.11H174.203C173.576 150.37 173.709 150.029 173.102 149.214C169.875 144.607 160.897 141.63 157.918 142.104C155.792 137.724 157.918 137.895 153.647 135.24C150.8 133.269 151.388 133.344 149.509 130.576Z" fill="#21529C"/>
<path fill-rule="evenodd" clip-rule="evenodd" d="M207.591 215.592C209.755 217.014 211.747 218.133 213.702 219.384C216.796 221.28 215.278 221.982 220.213 222.759C223.705 223.328 222.244 222.133 224.142 222.266C225.679 222.399 224.597 222.911 227.368 223.859C233.404 225.906 231.544 225.755 233.499 227.651C235.739 229.869 235.511 227.878 240.75 229.547C241.775 226.343 246.918 221.091 250.885 218.986C251.664 214.36 250.411 215.782 253.524 212.957C254.969 211.51 256.29 209.943 257.472 208.274C259.787 208.729 261.647 209.677 260.584 206.378C259.692 203.61 259.123 204.141 260.319 201.202C262.444 200.69 264.855 201.391 264.551 198.68C264.286 196.329 262.444 195.931 260.755 195.514C256.959 194.585 257.775 193.959 256.086 193.163C254.966 192.651 252.29 192.025 250.999 191.627L249.879 193.371L245.855 192.973L245.552 189.693L241.49 189.03L239.972 191.21C235.891 191.343 235.796 189.712 232.664 190.793C230.447 191.922 227.926 192.314 225.47 191.911C222.244 184.574 219.624 187.096 217.65 187.247C216.341 187.247 214.5 187.247 213.152 187.247C203.662 187.001 206.167 189.883 201.005 193.466C201.156 195.362 201.612 195.229 202.124 196.974C197.493 199.742 192.292 198.301 190.053 203.193C195.196 206.34 189.635 205.089 202.314 211.099C205.351 212.578 204.99 213.848 207.591 215.592Z" fill="#21529C"/>
<path fill-rule="evenodd" clip-rule="evenodd" d="M285.923 176.515C289.719 176.61 290.213 177.35 290.459 174.297L291.598 175.795L293.136 174.676C292.813 173.482 292.49 173.69 291.845 172.648C291.473 171.998 291.229 171.284 291.124 170.543C294.635 169.614 294.54 169.367 294.92 168.078C291.636 166.599 287.157 171.15 283.854 168.495C284.348 167.244 284.556 167.908 285.961 166.846L285.676 164.343C279.982 164.343 285.164 165.86 272.959 164.741C273.415 162.845 275.18 159.053 275.275 157.707C275.389 156.001 274.402 155.811 274.971 153.915C275.256 153.005 275.958 151.792 276.338 150.692C275.617 149.909 274.734 149.292 273.751 148.883C272.768 148.474 271.708 148.282 270.644 148.322C271.308 145.194 270.985 147.09 273.206 145.819C273.832 143.43 273.889 144.322 273.206 142.027C273.529 141.667 274.212 141.117 274.231 141.004C274.25 140.89 275.142 140.549 273.662 140.131C271.764 139.563 273.662 140.245 271.346 141.212L271.213 138.008C269.068 137.591 269.315 138.273 267.113 137.553C262.235 135.979 261.419 138.634 256.048 138.425C251.777 138.273 243.653 137.155 240.863 139.961L241.338 143.753C243.9 145.649 243.691 142.975 246.121 149.156L241.585 156.304L247.582 157.537C247.582 160.437 246.766 161.992 247.203 163.49L247.487 164.097C248.285 165.538 248.702 164.381 248.607 166.827C248.607 168.268 248.19 168.154 248.38 169.898C250.578 171.458 253.127 172.454 255.801 172.799C260.546 173.937 260.413 172.913 260.869 177.975C257.87 179.094 256.864 179.871 255.934 184.232C260.964 186.393 257.433 185.313 262.008 183.568C270.682 180.269 269.6 185.123 276.167 184.858C279.584 184.725 279.963 185.521 283.759 185.313L285.847 182.108C285.24 180.061 284.765 181.198 285.183 179.473C285.525 178.513 285.772 177.523 285.923 176.515Z" fill="#21529C"/>
<path fill-rule="evenodd" clip-rule="evenodd" d="M273.603 206.377C276.166 206.131 276.546 206.15 276.09 204.007C275.483 201.239 275.331 203.666 274.192 200.651C271.287 200.256 268.334 200.397 265.48 201.068L264.018 201.656C262.652 202.054 262.12 201.656 260.925 202.301C259.615 205.41 263.677 206.244 260.716 210.207L258.077 209.43C252.782 214.814 252.08 214.795 251.909 219.744C248.113 221.071 247.904 221.962 245.835 224.351C244.582 225.811 241.488 228.314 241.488 230.323C241.488 232.333 242.779 231.177 240.501 233.414C239.021 234.874 239.249 234.665 239.002 237.32C238.357 244.259 238.717 240.865 240.71 245.605C239.477 246.667 239.116 245.7 238.129 247.653L241.109 249.226C243.007 248.525 241.109 248.487 244.013 248.335C244.969 248.431 245.935 248.314 246.841 247.994C249.517 247.198 250.087 247.539 251.301 249.89C252.25 251.653 251.567 250.535 253.389 251.52C254.756 252.298 253.921 252.393 255.61 252.62C257.381 252.723 259.129 252.177 260.526 251.084C262.842 253.227 262.025 251.084 267.055 252.98C268.517 249.511 268.289 251.217 267.758 247.292C267.416 244.809 270.889 239.576 272.294 237.471C273.698 235.367 274.363 235.329 274.192 231.916C277.305 231.688 276.337 231.688 278.273 232.674C278.842 228.882 277.57 230.778 279.601 228.276C280.322 227.333 280.688 226.167 280.636 224.982C280.584 223.797 280.117 222.668 279.317 221.791C277.684 219.535 276.925 221.185 274.932 217.999C273.755 218.511 274.363 218.53 273.034 218.606C274.515 214.378 272.73 216.54 273.319 212.558C273.622 210.378 272.939 210.435 273.167 209.392C273.698 207.268 273.85 209.809 273.603 206.377Z" fill="#21529C"/>
<path fill-rule="evenodd" clip-rule="evenodd" d="M321.169 127.371C320.808 126.841 320.163 128.433 320.846 125.741C321.283 124.035 325.648 123.542 327.736 120.584C328.4 119.655 328.229 119.181 329.046 118.195C329.862 117.209 330.033 117.418 330.773 116.621C331.513 115.825 331.551 115.256 332.671 114.725C333.791 114.194 334.968 114.479 335.48 114.175C337.112 113.246 335.157 113.322 336.391 111.445C337.017 110.478 337.549 110.876 338.783 110.914C341.041 110.914 341.098 109.549 342.825 108.393C344.23 107.445 347.324 107.236 345.445 105.188C344.072 104.201 342.546 103.445 340.927 102.951C339.276 105.018 339.675 103.71 337.625 104.847C336.923 105.188 337.074 105.416 336.144 105.795C334.797 106.345 334.588 105.037 332.462 108.81C329.14 114.744 330.203 109.663 327.907 108.98C326.711 108.829 326.009 109.853 324.452 110.364L324.585 113.322C320.182 113.91 324.357 114.877 319.403 117.114C313.538 119.844 321.302 119.01 310.255 121.608C308.357 122.063 308.167 121.608 307.446 123.314C306.497 125.456 307.446 124.907 305.168 125.532C303.991 125.874 302.947 125.665 304.105 128.073C302.112 128.073 301.714 128.566 300.784 128.452C299.512 128.263 300.518 126.784 295.773 130.595C292.527 133.211 296.969 134.387 293.552 136.643C285.295 142.122 288.37 139.904 288.883 142.463C285.599 144.227 287.307 145.175 290.534 148.417C292.155 150.215 293.991 151.807 296 153.157C296 157.802 297.481 157.347 296.437 161.821C296.152 163.016 297.671 167.016 301.011 165.613C301.201 163.414 301.543 165.064 300.1 163.547C300.632 163.111 301.865 162.788 301.998 162.314C301.507 160.039 300.668 157.852 299.512 155.83C300.364 155.295 301.267 154.844 302.207 154.484C302.207 152.19 302.055 147.734 305.453 148.436C307.711 148.91 307.085 151.905 310.122 153.157C313.007 151.602 310.255 151.64 314.601 150.692C315.57 150.516 316.513 150.223 317.411 149.82C319.214 148.948 318.341 149.137 319.309 148.341L323.75 146.142C325.648 145.27 325.819 144.246 325.648 141.857C329.349 140.169 327.85 139.961 326.085 135.297L325.06 133.04C326.559 130.538 326.597 132.263 327.736 130.14C327.103 128.789 325.965 127.74 324.566 127.22C322.213 125.912 322.991 127.713 321.169 127.371Z" fill="#21529C"/>
<path fill-rule="evenodd" clip-rule="evenodd" d="M246.747 164.59C245.817 163.244 246.026 163.851 246.272 161.765C246.424 160.514 246.595 159.414 246.671 158.163C239.079 157.499 240.199 156.57 238.528 154.637C237.371 154.902 236.63 155.547 235.397 155.528C233.498 155.528 234.41 154.883 232.511 154.599C229.152 157.784 231.676 158.827 231.449 161.424C231.188 162.556 230.819 163.661 230.348 164.723C229.285 168.117 230.348 165.463 230.575 168.515C228.439 170.566 225.604 171.731 222.642 171.776C220.098 171.435 219.263 167.681 215.049 167.984L214.024 174.696C211.026 174.696 208.634 174.696 207.059 176.706C207.913 177.805 208.027 177.123 208.672 178.298C209.811 180.403 208.387 182.09 208.672 183.986L209.811 186.205C211.956 186.205 214.29 186.394 216.435 186.394C218.475 186.121 220.527 185.957 222.585 185.901C223.675 187.731 224.946 189.446 226.381 191.02C230.424 191.627 232.189 189.295 234.656 189.352C237.94 189.352 237.826 192.708 241.243 188.025L246.405 188.916C247.506 192.386 244.982 192.025 249.613 192.405C249.689 191.993 249.844 191.601 250.068 191.248C250.543 190.471 250.163 191.02 250.733 190.527C251.625 190.793 258.154 193.561 259.578 191.551C260.944 186.205 257.338 186.622 254.947 184.119C257.072 177.995 256.617 179.208 259.141 177.673C259.424 177.516 259.691 177.331 259.938 177.123C259.483 173.9 260.717 174.829 254.13 173.331C251.771 172.884 249.541 171.919 247.601 170.506C247.013 166.562 248.74 167.548 246.747 164.59Z" fill="#21529C"/>
<path fill-rule="evenodd" clip-rule="evenodd" d="M355.79 129.097C355.961 127.751 356.303 127.088 355.79 126.045C354.879 126.405 354.708 126.045 354.5 127.675C353.93 132.093 356.398 128.491 352.431 133.572L350.153 132.738C349.381 134.833 349.121 137.082 349.394 139.298C347.761 138.577 348.748 138.9 347.496 137.402C346.205 138.198 347.23 137.402 346.262 138.881L345.446 136.795C342.58 136.587 344.174 137.08 342.77 137.326C340.397 137.762 343.035 137.042 340.454 136.909C337.873 136.776 338.689 138.179 336.563 135.677C334.665 136.416 337.227 136.378 334.779 136.795C334.627 134.899 336.183 130.159 332.33 128.775C329.939 127.922 328.667 131.373 326.01 132.567C326.337 134.413 326.979 136.19 327.908 137.819C329.711 141.004 327.528 139.961 328.515 142.123L334.209 149.991L343.244 148.721L342.124 151.679L344.725 153.176C345.819 152.369 346.813 151.433 347.686 150.389C350.419 147.792 350.874 149.991 351.861 147.602C352.564 145.896 351.861 146.844 352.791 146.029C353.665 145.577 354.608 145.276 355.581 145.137C359.719 144.133 358.239 144.474 361.902 145.137C362.809 145.257 363.73 145.055 364.503 144.566C365.276 144.078 365.854 143.334 366.135 142.464C367.065 139.886 365.926 138.938 365.85 137.762C365.863 137.68 365.863 137.597 365.85 137.516C364.483 138.046 365.356 137.686 364.199 138.748C363.098 138.35 360.175 137.629 359.586 137.307C358.979 135.108 360.478 135.221 360.023 132.112C358.542 131.031 359.415 132.34 358.125 130.519C357.081 129.154 357.821 129.192 355.79 129.097Z" fill="#21529C"/>
<path fill-rule="evenodd" clip-rule="evenodd" d="M336.126 165.69C339.923 165.083 338.328 165.69 339.543 163.358C342.827 163.358 341.251 162.902 343.491 161.689C346.414 161.006 352.469 165.291 353.399 165.481V165.026C353.797 163.642 353.911 163.907 355.297 164.002V167.415C356.233 167.315 357.096 166.86 357.707 166.145L359.112 164.647C359.112 164.514 359.245 164.495 359.321 164.419C361.845 165.538 360.63 164.419 362.832 163.718C362.832 162.447 362.509 163.452 361.902 161.651C363.61 160.551 363.534 160.229 364.73 158.731C366.495 156.437 366.628 158.731 366.837 155.679C364.787 154.579 361.333 154.901 359.245 154.029C357.48 153.328 358.485 152.607 356.948 151.849C355.712 151.518 354.43 151.39 353.152 151.47L351.823 149.46C348.407 150.256 347.04 152.55 345.218 154.522L341.042 152.228L341.84 149.82C339.889 149.974 337.949 150.246 336.032 150.635C333.868 151.128 330.148 154.655 328.572 156.323C327.528 157.442 328.344 156.873 326.674 157.613C321.606 159.774 327.054 161.12 330.129 161.405C329.882 165.462 329.502 163.661 331.248 166.334C332.805 166.22 334.475 165.974 336.126 165.69Z" fill="#21529C"/>
<path fill-rule="evenodd" clip-rule="evenodd" d="M119.578 135.183C118.857 133.743 119.388 133.629 118.838 132.605C117.87 130.709 116.275 132.055 115.042 129.42C114.036 127.277 115.421 128.623 113.276 127.524C111.075 126.41 109.184 124.768 107.772 122.746C105.988 118.385 106.083 121.21 104.185 119.295C103.44 117.671 102.806 115.999 102.287 114.29C100.389 110.687 94.5426 114.593 93.7834 116.186C95.6815 118.195 96.3837 116.432 97.5795 119.523C95.9852 119.068 94.3149 118.082 92.7964 118.461C92.1701 121.703 94.3149 121.931 94.4098 124.149C94.5047 126.367 92.5117 125.571 92.5117 129.514C97.7693 132.51 99.5345 136.738 104.545 135.202C108.341 134.103 109.613 134.937 113.049 135.202C114.947 135.335 113.732 133.913 115.839 135.202C119.009 137.269 115.326 137.497 121.172 137.572C120.693 136.743 120.161 135.945 119.578 135.183Z" fill="#21529C"/>
<path fill-rule="evenodd" clip-rule="evenodd" d="M377.427 154.636C379.743 154.75 378.585 155.091 379.743 153.195C380.9 151.299 379.743 153.025 381.185 151.678L381.793 151.034L381.982 150.825C384.07 148.759 386.879 149.782 387.98 148.285C387.98 148 388.569 146.389 385.323 147.128C380.046 148.304 385.095 146.995 375.833 146.37C374.656 144.474 376.136 145.08 373.574 142.919C373.08 142.502 373.574 143.014 372.948 142.312C372.321 141.611 372.853 141.819 371.904 141.27C368.24 139.127 366.399 143.981 366.38 144C363.78 148.493 359.396 143.431 352.923 147.033C352.581 149.138 352.544 148.929 353.644 150.636H357.554C358.94 153.992 361.844 153.612 367.785 154.579L367.576 157.897C369.076 158.447 370.138 159.471 371.828 160.097C372.549 156.437 371.942 157.973 371.524 156.987C370.898 155.47 372.245 156.646 370.48 153.992C373.27 153.878 371.201 153.783 372.473 154.693C373.668 155.818 375.219 156.488 376.858 156.589C377.123 156.115 376.858 156.589 377.199 155.717C377.275 155.66 377.408 154.731 377.427 154.636Z" fill="#21529C"/>
<path fill-rule="evenodd" clip-rule="evenodd" d="M292.945 152.171C290.895 150.56 287.023 147.318 286.473 144.701C285.752 141.251 286.207 143.146 285.201 141.364C283.303 142.066 283.398 141.497 282.582 143.071C283.74 144.151 284.48 143.62 284.708 145.061C284.935 146.502 284.081 146.37 284.708 148.853C284.856 149.484 285.12 150.082 285.486 150.617C287.555 153.821 284.765 151.716 286.416 154.314C282.012 155.432 280.456 152.607 277.172 151.318C275.047 155.66 276.261 153.859 276.129 157.765C276.129 159.224 274.534 162.144 274.23 163.926C280.589 164.761 281.443 163.339 286.454 163.225C286.985 168.136 286.644 165.917 289.586 166.372C292.528 166.827 288.808 165.538 296.836 165.519C295.925 163.623 295.128 164.476 295.318 162.448C295.659 158.656 296.665 163.32 295.014 154.579C294.71 153.195 293.818 152.835 292.945 152.171Z" fill="#21529C"/>
<path fill-rule="evenodd" clip-rule="evenodd" d="M141.632 154.465C144.726 151.052 144.536 151.868 145.2 147.886L140.076 142.445C137.35 139.938 134.929 137.118 132.863 134.045C130.965 131.562 124.322 130.443 122.689 133.439C124.17 134.197 125.404 133.818 126.751 134.235L132.578 138.406C134.078 140.113 131.952 138.501 134.742 141.193C135.482 141.895 135.312 141.402 135.558 142.748C135.65 143.497 135.695 144.25 135.691 145.004C135.805 147.962 138.216 154.598 139.582 155.811C140.987 155.47 140.626 155.584 141.632 154.465Z" fill="#21529C"/>
</g>
<defs>
<clipPath id="clip0_1804_11796">
<rect width="388" height="253" fill="white"/>
</clipPath>
</defs>
</svg>
