<svg width="35" height="34" viewBox="0 0 35 34" fill="none" xmlns="http://www.w3.org/2000/svg">
<path fill-rule="evenodd" clip-rule="evenodd" d="M26.459 1.77051C27.0458 1.77051 27.5215 2.24621 27.5215 2.83301V6.72884H31.4173C32.0041 6.72884 32.4798 7.20454 32.4798 7.79134C32.4798 8.37814 32.0041 8.85384 31.4173 8.85384H27.5215V12.7497C27.5215 13.3365 27.0458 13.8122 26.459 13.8122C25.8722 13.8122 25.3965 13.3365 25.3965 12.7497V8.85384H21.5006C20.9138 8.85384 20.4381 8.37814 20.4381 7.79134C20.4381 7.20454 20.9138 6.72884 21.5006 6.72884H25.3965V2.83301C25.3965 2.24621 25.8722 1.77051 26.459 1.77051Z" fill="#1C274C"/>
<path fill-rule="evenodd" clip-rule="evenodd" d="M17.2507 1.77051L17.1694 1.77051C13.8991 1.77049 11.3363 1.77048 9.33673 2.03932C7.29002 2.31449 5.67499 2.88872 4.40734 4.15637C3.1397 5.42402 2.56546 7.03905 2.29029 9.08576C2.02145 11.0854 2.02147 13.6482 2.02148 16.9184V17.081C2.02147 20.3512 2.02145 22.914 2.29029 24.9136C2.56546 26.9603 3.1397 28.5753 4.40734 29.843C5.67499 31.1106 7.29002 31.6849 9.33673 31.96C11.3363 32.2289 13.8991 32.2289 17.1694 32.2288H17.3319C20.6022 32.2289 23.165 32.2289 25.1646 31.96C27.2113 31.6849 28.8263 31.1106 30.094 29.843C31.3616 28.5753 31.9358 26.9603 32.211 24.9136C32.4798 22.914 32.4798 20.3512 32.4798 17.081V16.9997C32.4798 16.4129 32.0041 15.9372 31.4173 15.9372C30.8305 15.9372 30.3548 16.4129 30.3548 16.9997C30.3548 20.3688 30.3526 22.7888 30.105 24.6304C30.0952 24.7031 30.0851 24.7746 30.0746 24.845L26.1448 21.3081C24.3039 19.6513 21.5625 19.4864 19.5362 20.9104L19.1138 21.2073C18.4097 21.7021 17.4519 21.6191 16.8434 21.0106L10.7663 14.9335C9.15781 13.325 6.57767 13.2391 4.86574 14.737L4.14787 15.3652C4.15431 12.8261 4.19075 10.8981 4.39634 9.36891C4.63984 7.55784 5.10293 6.46598 5.90995 5.65897C6.71696 4.85196 7.80881 4.38886 9.61988 4.14537C11.4615 3.89776 13.8815 3.89551 17.2507 3.89551C17.8375 3.89551 18.3132 3.41981 18.3132 2.83301C18.3132 2.24621 17.8375 1.77051 17.2507 1.77051ZM4.39634 24.6304C4.63984 26.4415 5.10293 27.5334 5.90995 28.3404C6.71696 29.1474 7.80881 29.6105 9.61988 29.854C11.4615 30.1016 13.8815 30.1038 17.2507 30.1038C20.6198 30.1038 23.0398 30.1016 24.8814 29.854C26.6925 29.6105 27.7843 29.1474 28.5914 28.3404C28.9364 27.9954 29.2185 27.5983 29.4475 27.1152C29.3924 27.0816 29.3396 27.0424 29.2899 26.9976L24.7232 22.8876C23.6187 21.8935 21.9739 21.7946 20.7581 22.649L20.3357 22.9459C18.7867 24.0344 16.6795 23.8519 15.3408 22.5132L9.2637 16.4361C8.44627 15.6187 7.13506 15.575 6.26506 16.3363L4.14703 18.1895C4.15068 20.9499 4.17891 23.0132 4.39634 24.6304Z" fill="#1C274C"/>
</svg>
