<svg width="18" height="18" viewBox="0 0 18 18" fill="none" xmlns="http://www.w3.org/2000/svg">
<path fill-rule="evenodd" clip-rule="evenodd" d="M9 14.625C8.343 14.625 7.7085 14.5485 7.09875 14.4186L4.4505 16.0104L4.48594 13.401C2.45587 12.1804 1.125 10.1621 1.125 7.875C1.125 4.14731 4.65075 1.125 9 1.125C13.3492 1.125 16.875 4.14731 16.875 7.875C16.875 11.6032 13.3492 14.625 9 14.625ZM9 0C4.02975 0 0 3.52631 0 7.875C0 10.3607 1.31906 12.5741 3.375 14.0169V18L7.31756 15.6077C7.86319 15.6977 8.42456 15.75 9 15.75C13.9703 15.75 18 12.2242 18 7.875C18 3.52631 13.9703 0 9 0Z" fill="#21529C"/>
</svg>
