<svg width="20" height="20" viewBox="0 0 20 20" fill="none" xmlns="http://www.w3.org/2000/svg">
<path opacity="0.5" d="M15.5539 13.2236L14.8054 13.1759L14.8054 13.1759L15.5539 13.2236ZM4.44484 13.2236L3.69636 13.2713L3.69636 13.2713L4.44484 13.2236ZM5.43009 17.5949L5.95485 17.0591L5.95485 17.0591L5.43009 17.5949ZM4.22258 9.7337L4.97106 9.68603L4.97106 9.68603L4.22258 9.7337ZM15.7761 9.7337L15.0276 9.68603L15.0276 9.68603L15.7761 9.7337ZM9.66235 19.0832H10.3363V17.5832H9.66235V19.0832ZM16.3023 13.2713L16.5246 9.78137L15.0276 9.68603L14.8054 13.1759L16.3023 13.2713ZM3.47409 9.78137L3.69636 13.2713L5.19333 13.1759L4.97106 9.68603L3.47409 9.78137ZM10.3363 19.0832C11.4744 19.0832 12.4045 19.0848 13.1411 18.984C13.9024 18.8797 14.5583 18.6547 15.0934 18.1308L14.0438 17.0591C13.825 17.2734 13.5243 17.4175 12.9376 17.4978C12.3263 17.5816 11.5172 17.5832 10.3363 17.5832V19.0832ZM14.8054 13.1759C14.727 14.4065 14.6713 15.2595 14.5493 15.9005C14.4308 16.5234 14.2669 16.8406 14.0438 17.0591L15.0934 18.1308C15.6242 17.611 15.8758 16.9535 16.0229 16.1809C16.1665 15.4263 16.2265 14.4627 16.3023 13.2713L14.8054 13.1759ZM9.66235 17.5832C8.48151 17.5832 7.67239 17.5816 7.06107 17.4978C6.47444 17.4175 6.17368 17.2734 5.95485 17.0591L4.90533 18.1308C5.44037 18.6547 6.09627 18.8797 6.85758 18.984C7.59419 19.0848 8.52426 19.0832 9.66235 19.0832V17.5832ZM3.69636 13.2713C3.77224 14.4627 3.83223 15.4263 3.97583 16.1809C4.12287 16.9535 4.37455 17.611 4.90533 18.1308L5.95485 17.0591C5.73177 16.8406 5.56794 16.5234 5.44939 15.9005C5.3274 15.2595 5.2717 14.4065 5.19333 13.1759L3.69636 13.2713ZM6.76939 7.67969H13.2293V6.17969H6.76939V7.67969ZM4.97106 9.68603C4.92786 9.00774 4.90182 8.574 4.9239 8.25502C4.94465 7.9553 5.00212 7.88147 5.03041 7.85033L3.92004 6.84182C3.57014 7.22706 3.45943 7.68997 3.42749 8.15142C3.39687 8.59362 3.4336 9.1455 3.47409 9.78137L4.97106 9.68603ZM6.76939 6.17969C6.15331 6.17969 5.6113 6.17791 5.17971 6.23918C4.72397 6.30389 4.2733 6.45289 3.92004 6.84182L5.03041 7.85033C5.05535 7.82287 5.1131 7.76368 5.39056 7.72429C5.69218 7.68147 6.10815 7.67969 6.76939 7.67969V6.17969ZM16.5246 9.78137C16.5651 9.14549 16.6018 8.59362 16.5712 8.15142C16.5393 7.68997 16.4286 7.22706 16.0787 6.84182L14.9683 7.85033C14.9966 7.88147 15.054 7.95529 15.0748 8.25502C15.0969 8.574 15.0708 9.00774 15.0276 9.68603L16.5246 9.78137ZM13.2293 7.67969C13.8905 7.67969 14.3065 7.68147 14.6081 7.72429C14.8856 7.76368 14.9434 7.82287 14.9683 7.85033L16.0787 6.84182C15.7254 6.45289 15.2747 6.30389 14.819 6.23918C14.3874 6.17791 13.8454 6.17969 13.2293 6.17969V7.67969Z" fill="#FF2D55"/>
<path d="M2.5 5.32197C2.5 4.91826 2.78782 4.59098 3.14286 4.59098L5.36306 4.59059C5.80419 4.57788 6.19335 4.25894 6.34345 3.78709C6.3474 3.77468 6.35193 3.75938 6.36821 3.70386L6.46388 3.37746C6.52242 3.17733 6.57342 3.00298 6.64479 2.84714C6.92674 2.23146 7.4484 1.80392 8.05122 1.69447C8.20381 1.66676 8.3654 1.66688 8.55088 1.66701H11.4493C11.6347 1.66688 11.7963 1.66676 11.9489 1.69447C12.5517 1.80392 13.0734 2.23146 13.3554 2.84714C13.4267 3.00298 13.4777 3.17733 13.5363 3.37746L13.6319 3.70386C13.6482 3.75938 13.6527 3.77468 13.6567 3.78709C13.8068 4.25894 14.2732 4.57827 14.7143 4.59098H16.8571C17.2122 4.59098 17.5 4.91826 17.5 5.32197C17.5 5.72568 17.2122 6.05296 16.8571 6.05296H3.14286C2.78782 6.05296 2.5 5.72568 2.5 5.32197Z" fill="#FF2D55"/>
<path fill-rule="evenodd" clip-rule="evenodd" d="M7.85387 9.56777C8.19734 9.53161 8.50361 9.79539 8.53796 10.1569L8.95463 14.5429C8.98897 14.9044 8.73838 15.2268 8.39492 15.263C8.05145 15.2991 7.74518 15.0354 7.71083 14.6738L7.29416 10.2879C7.25982 9.92632 7.51041 9.60392 7.85387 9.56777Z" fill="#FF2D55"/>
<path fill-rule="evenodd" clip-rule="evenodd" d="M12.1449 9.56777C12.4884 9.60392 12.739 9.92632 12.7046 10.2879L12.288 14.6738C12.2536 15.0354 11.9473 15.2991 11.6039 15.263C11.2604 15.2268 11.0098 14.9044 11.0442 14.5429L11.4608 10.1569C11.4952 9.79539 11.8015 9.53161 12.1449 9.56777Z" fill="#FF2D55"/>
</svg>
