<svg width="20" height="20" viewBox="0 0 20 20" fill="none" xmlns="http://www.w3.org/2000/svg">
<path opacity="0.5" fill-rule="evenodd" clip-rule="evenodd" d="M2.70898 18.333C2.70898 17.9878 2.98881 17.708 3.33398 17.708H16.6673C17.0125 17.708 17.2923 17.9878 17.2923 18.333C17.2923 18.6782 17.0125 18.958 16.6673 18.958H3.33398C2.98881 18.958 2.70898 18.6782 2.70898 18.333Z" stroke="#21529C" stroke-width="1.5" stroke-linecap="round"/>
<path opacity="0.5" d="M15.9014 6.14335C16.9254 5.11932 16.9254 3.45904 15.9014 2.43501C14.8774 1.41099 13.2171 1.41099 12.1931 2.43501L11.6016 3.0265C11.6097 3.05096 11.6181 3.07576 11.6268 3.10088C11.8436 3.72578 12.2526 4.54496 13.0221 5.31447C13.7917 6.08399 14.6108 6.49304 15.2357 6.70984C15.2607 6.71852 15.2854 6.72688 15.3098 6.73495L15.9014 6.14335Z" fill="#21529C"/>
<path d="M11.6262 3L11.6008 3.02547C11.6089 3.04993 11.6173 3.07472 11.626 3.09984C11.8428 3.72474 12.2518 4.54393 13.0214 5.31344C13.7909 6.08295 14.6101 6.49201 15.235 6.70881C15.2597 6.71741 15.2842 6.7257 15.3084 6.7337L9.60014 12.4419C9.21531 12.8268 9.02285 13.0192 8.81068 13.1847C8.56039 13.3799 8.28958 13.5473 8.00304 13.6839C7.76014 13.7996 7.50196 13.8857 6.98562 14.0578L4.2628 14.9654C4.0087 15.0501 3.72856 14.984 3.53916 14.7946C3.34977 14.6052 3.28364 14.325 3.36834 14.0709L4.27595 11.3481C4.44806 10.8318 4.53412 10.5736 4.64988 10.3307C4.78644 10.0442 4.95381 9.77334 5.14903 9.52306C5.31451 9.31089 5.50694 9.11846 5.89175 8.73365L11.6262 3Z" fill="#21529C"/>
</svg>
