<svg width="36" height="36" viewBox="0 0 36 36" fill="none" xmlns="http://www.w3.org/2000/svg">
<path fill-rule="evenodd" clip-rule="evenodd" d="M3.04102 16.875C3.6163 9.11618 10.0936 3 17.9995 3C16.7532 3 15.6435 3.54631 14.7307 4.38169C13.8224 5.21288 13.0548 6.37316 12.434 7.74473C11.8095 9.12438 11.3245 10.738 10.9962 12.4892C10.733 13.8929 10.5728 15.3728 10.5194 16.875H3.04102ZM3.04102 19.125H10.5194C10.5728 20.6272 10.733 22.1071 10.9962 23.5108C11.3245 25.262 11.8095 26.8756 12.434 28.2553C13.0548 29.6268 13.8224 30.7871 14.7307 31.6183C15.6435 32.4537 16.7532 33 17.9995 33C10.0936 33 3.6163 26.8838 3.04102 19.125Z" fill="#6574D8"/>
<path d="M17.9995 5.09302C17.587 5.09302 17.054 5.26855 16.4344 5.83562C15.8101 6.40689 15.1852 7.30222 14.633 8.52206C14.0846 9.73381 13.6392 11.1966 13.3327 12.8313C13.0914 14.1186 12.9416 15.4833 12.8891 16.875H23.1098C23.0573 15.4833 22.9076 14.1186 22.6662 12.8313C22.3597 11.1966 21.9144 9.73381 21.3659 8.52206C20.8138 7.30222 20.1888 6.40689 19.5646 5.83563C18.9449 5.26855 18.412 5.09302 17.9995 5.09302Z" fill="#6574D8"/>
<path d="M13.3327 23.1687C13.6392 24.8034 14.0846 26.2662 14.633 27.4779C15.1852 28.6978 15.8101 29.5931 16.4344 30.1644C17.054 30.7315 17.587 30.907 17.9995 30.907C18.412 30.907 18.9449 30.7315 19.5646 30.1644C20.1888 29.5931 20.8138 28.6978 21.3659 27.4779C21.9144 26.2662 22.3597 24.8034 22.6662 23.1687C22.9076 21.8814 23.0573 20.5167 23.1098 19.125H12.8891C12.9416 20.5167 13.0914 21.8814 13.3327 23.1687Z" fill="#6574D8"/>
<path d="M17.9995 3C19.2458 3 20.3554 3.54631 21.2683 4.38169C22.1765 5.21288 22.9441 6.37317 23.5649 7.74473C24.1894 9.12438 24.6745 10.738 25.0028 12.4892C25.266 13.8929 25.4261 15.3728 25.4795 16.875H32.9579C32.3826 9.11618 25.9053 3 17.9995 3Z" fill="#6574D8"/>
<path d="M25.0028 23.5108C24.6745 25.262 24.1894 26.8756 23.5649 28.2553C22.9441 29.6268 22.1765 30.7871 21.2683 31.6183C20.3554 32.4537 19.2458 33 17.9995 33C25.9053 33 32.3826 26.8838 32.9579 19.125H25.4795C25.4261 20.6272 25.266 22.1071 25.0028 23.5108Z" fill="#6574D8"/>
</svg>
