<svg width="36" height="36" viewBox="0 0 36 36" fill="none" xmlns="http://www.w3.org/2000/svg">
<path d="M12.5277 30.3628C13.7893 31.9665 15.7713 33 18 33C20.2287 33 22.2107 31.9665 23.4723 30.3628C19.8396 30.855 16.1604 30.855 12.5277 30.3628Z" fill="#6574D8"/>
<path d="M28.1237 13.5V14.5562C28.1237 15.8236 28.4854 17.0628 29.1633 18.1174L30.8245 20.7017C32.3418 23.0623 31.1834 26.2709 28.5445 27.0173C21.6409 28.9701 14.3591 28.9701 7.45554 27.0173C4.81657 26.2709 3.65824 23.0623 5.17554 20.7017L6.8367 18.1174C7.51457 17.0628 7.87631 15.8236 7.87631 14.5562V13.5C7.87631 7.70101 12.4088 3 18 3C23.5912 3 28.1237 7.70101 28.1237 13.5Z" fill="#6574D8"/>
<circle cx="25" cy="7" r="5" fill="#6574D8" stroke="white" stroke-width="2"/>
</svg>
